<?xml version="1.0" encoding="utf-8"?>
<!-- Generator: Adobe Illustrator 19.2.1, SVG Export Plug-In . SVG Version: 6.00 Build 0)  -->
<svg version="1.1" id="Layer_1" xmlns="http://www.w3.org/2000/svg" xmlns:xlink="http://www.w3.org/1999/xlink" x="0px" y="0px"
	 viewBox="0 0 283.5 283.5" enable-background="new 0 0 283.5 283.5" xml:space="preserve">
<g>
	<path fill="#333333" d="M280.2,171.3l-56.5-23.9l38.5-36c1.4-1.3,1.9-3.3,1.2-5.1c-0.7-1.8-2.4-2.9-4.3-2.9l-0.3,0l-51.1,6
		l26.7-34.1c1.1-1.4,1.3-3.3,0.5-4.9c-0.8-1.6-2.4-2.6-4.2-2.6l-1.4,0l-47.7,28.6l3.4-49.3c0.1-1.3-0.4-2.6-1.2-3.5
		c-0.9-0.9-2.1-1.5-3.4-1.5c-1.7,0-3.2,0.9-4.1,2.4L156,81.3L146,29.6c-0.4-2.2-2.3-3.8-4.6-3.8c-2.3,0-4.2,1.6-4.6,3.8l-9.1,52.2
		l-21.5-37.4c-0.8-1.4-2.4-2.3-4-2.3c-1.3,0-2.5,0.5-3.4,1.5c-0.9,0.9-1.3,2.2-1.3,3.4l2.2,42.5L53.6,67.9l-1-0.4h-1
		c-1.8,0-3.4,1-4.1,2.6c-0.8,1.6-0.6,3.4,0.4,4.9l24.9,33.7l-48.9-5.2h-0.2c-1.9,0-3.7,1.2-4.3,3c-0.7,1.8-0.2,3.9,1.3,5.1l40,35.1
		L2.4,171.3c-1.8,0.8-3,2.6-2.8,4.6c0.1,2,1.5,3.6,3.4,4.2l68.7,19.5c6.3,33.6,35.8,59,71.2,59c35.7,0,65.4-25.9,71.3-59.9
		l65.6-18.6c1.9-0.5,3.2-2.2,3.4-4.2C283.2,173.9,282,172.1,280.2,171.3z"/>
	<path fill="#F9F06C" d="M278.5,175.9L214.8,194c0.3-2.6,0.4-5.2,0.4-7.8c0-39.9-32.5-72.4-72.4-72.4s-72.4,32.5-72.4,72.4
		c0,2.9,0.2,5.8,0.5,8.7L4.1,175.9c-0.3-0.1-0.3-0.5,0-0.6l64.1-27.2c0.2-0.1,0.2-0.4,0.1-0.5l-44.9-39.4c-0.2-0.2-0.1-0.6,0.2-0.5
		l57.8,6.2c0.3,0,0.4-0.3,0.3-0.5L51.4,72.3c-0.2-0.2,0.1-0.6,0.4-0.4L104,96.3c0.2,0.1,0.4-0.1,0.4-0.3l-2.6-49.3
		c0-0.3,0.4-0.5,0.6-0.2l27,47.1c0.1,0.2,0.5,0.2,0.6-0.1l11.1-63.2c0.1-0.3,0.5-0.3,0.6,0L153.9,93c0,0.3,0.4,0.3,0.6,0.1
		l25.7-46.4c0.2-0.3,0.6-0.2,0.6,0.2l-4,57.1c0,0.2,0.2,0.4,0.5,0.3l53.3-32c0.3-0.2,0.6,0.2,0.4,0.5l-32.6,41.7
		c-0.2,0.2,0,0.5,0.3,0.5l60.4-7c0.3,0,0.5,0.3,0.2,0.5l-43,40.3c-0.2,0.2-0.1,0.4,0.1,0.5l62.2,26.3
		C278.8,175.4,278.8,175.8,278.5,175.9z"/>
	<path fill="#EF3D39" d="M159.5,121.6c-35.6-9.2-72,12.2-81.3,47.8c-9.2,35.6,12.2,72,47.8,81.3c35.6,9.2,72-12.2,81.3-47.8
		C216.6,167.3,195.1,130.9,159.5,121.6z M95.4,153c1.1-4.3,5.5-6.9,9.9-5.8c4.3,1.1,6.9,5.5,5.8,9.9c-1.1,4.3-5.5,6.9-9.9,5.8
		C96.9,161.8,94.3,157.3,95.4,153z M104.6,183.8c-4.3-1.1-6.9-5.5-5.8-9.9c1.1-4.3,5.5-6.9,9.9-5.8c4.3,1.1,6.9,5.5,5.8,9.9
		C113.3,182.3,108.9,184.9,104.6,183.8z M123.2,166.9c-4.3-1.1-6.9-5.5-5.8-9.9c1.1-4.3,5.5-6.9,9.9-5.8c4.3,1.1,6.9,5.5,5.8,9.9
		C131.9,165.4,127.5,168,123.2,166.9z M173.5,235.7c-0.5,0.3-1-0.3-0.7-0.8l7-9.3c11.4-15.2,17.6-33.8,17.6-52.8l0-10
		c0.9,0.2,2.8,8.4,3.5,12.7C204.6,199.2,193.7,222.9,173.5,235.7z"/>
</g>
</svg>
